<?xml version="1.0" encoding="iso-8859-1"?>
<!-- Generator: Adobe Illustrator 19.0.0, SVG Export Plug-In . SVG Version: 6.00 Build 0)  -->
<svg version="1.1" id="Capa_1" xmlns="http://www.w3.org/2000/svg" xmlns:xlink="http://www.w3.org/1999/xlink" x="0px" y="0px"
	 viewBox="0 0 399.151 399.151" style="enable-background:new 0 0 399.151 399.151;" xml:space="preserve">
<path style="fill:#1185E0;" d="M382.955,399.151H260.702c-8.882,0-15.673-6.792-15.673-15.673s6.792-15.673,15.673-15.673h106.58
	V260.702c0-8.882,6.792-15.673,15.673-15.673c8.882,0,15.673,6.792,15.673,15.673v122.775
	C398.629,392.359,391.837,399.151,382.955,399.151z M137.927,398.629H15.673C6.792,398.629,0,391.837,0,382.955V260.702
	c0-8.882,6.792-15.673,15.673-15.673s15.673,6.792,15.673,15.673v106.58h106.58c8.882,0,15.673,6.792,15.673,15.673
	C153.6,391.837,146.808,398.629,137.927,398.629z M383.478,154.122c-8.882,0-15.673-6.792-15.673-15.673V31.347H260.702
	c-8.882,0-15.673-6.792-15.673-15.673S251.82,0,260.702,0h122.776c8.882,0,15.673,6.792,15.673,15.673v122.776
	C399.151,147.331,392.359,154.122,383.478,154.122z M15.673,153.6C6.792,153.6,0,146.808,0,137.927V15.673C0,6.792,6.792,0,15.673,0
	h122.776c8.882,0,15.673,6.792,15.673,15.673s-6.792,15.673-15.673,15.673H31.347v106.58C31.347,146.808,24.555,153.6,15.673,153.6z
	"/>
<g>
</g>
<g>
</g>
<g>
</g>
<g>
</g>
<g>
</g>
<g>
</g>
<g>
</g>
<g>
</g>
<g>
</g>
<g>
</g>
<g>
</g>
<g>
</g>
<g>
</g>
<g>
</g>
<g>
</g>
</svg>
