<svg enable-background="new 0 0 32 32" height="512" viewBox="0 0 32 32" width="512" xmlns="http://www.w3.org/2000/svg"><path d="m26 32h-20c-3.314 0-6-2.686-6-6v-20c0-3.314 2.686-6 6-6h20c3.314 0 6 2.686 6 6v20c0 3.314-2.686 6-6 6z" fill="#ffe6e2"/><path d="m22.333 10.667h-12.666c-.919 0-1.667.747-1.667 1.666v7.333c0 .919.748 1.667 1.667 1.667h12.667c.919 0 1.667-.748 1.667-1.667v-7.333c-.001-.919-.749-1.666-1.668-1.666zm.334 3.606-5.74 3c-.287.147-.607.227-.927.227s-.633-.08-.927-.227l-5.74-3v-1.507l6.353 3.32c.193.1.433.1.627 0l6.353-3.32v1.507z" fill="#fc573b"/></svg>