<svg enable-background="new 0 0 32 32" height="512" viewBox="0 0 32 32" width="512" xmlns="http://www.w3.org/2000/svg"><path d="m26 32h-20c-3.314 0-6-2.686-6-6v-20c0-3.314 2.686-6 6-6h20c3.314 0 6 2.686 6 6v20c0 3.314-2.686 6-6 6z" fill="#ffe6e2"/><path d="m23.942 19.842c-.11-.632-.651-1.135-1.315-1.224l-3.686-.493c-.669-.091-1.331.264-1.608.86-.071.152-.13.31-.178.473-1.033-.431-1.96-1.053-2.759-1.852s-1.422-1.726-1.852-2.759c.163-.048.321-.107.473-.178.596-.277.949-.938.859-1.607l-.493-3.686c-.089-.665-.592-1.206-1.235-1.317-.234-.039-.429-.057-.614-.057-1.21 0-2.355.64-2.987 1.669-.684 1.115-.589 2.541-.43 3.659.36 2.532 1.661 5.078 3.569 6.986 1.418 1.418 3.171 2.481 5.068 3.073.966.302 2.175.617 3.34.617.871 0 1.717-.176 2.416-.667.933-.657 1.49-1.729 1.49-2.872 0-.185-.018-.381-.058-.625z" fill="#fc573b"/></svg>