<?xml version="1.0" encoding="iso-8859-1"?>
<!-- Generator: Adobe Illustrator 19.0.0, SVG Export Plug-In . SVG Version: 6.00 Build 0)  -->
<svg version="1.1" id="Capa_1" xmlns="http://www.w3.org/2000/svg" xmlns:xlink="http://www.w3.org/1999/xlink" x="0px" y="0px"
	 viewBox="0 0 483.788 483.788" style="enable-background:new 0 0 483.788 483.788;" xml:space="preserve">
<g>
	<path style="fill:#4DCFE0;" d="M223.086,223.608h-31.347v-36.571c0-2.612-2.612-5.224-5.225-5.224h-75.233
		c-2.612,0-5.224,2.612-5.224,5.224v36.571H74.71v-36.571c0-20.376,16.196-36.571,36.571-36.571h75.233
		c20.376,0,36.571,16.196,36.571,36.571V223.608z"/>
	<path style="fill:#4DCFE0;" d="M409.078,223.608h-31.347v-36.571c0-2.612-2.612-5.224-5.224-5.224h-75.233
		c-2.612,0-5.225,2.612-5.225,5.224v36.571h-31.347v-36.571c0-20.376,16.196-36.571,36.571-36.571h75.233
		c20.376,0,36.571,16.196,36.571,36.571V223.608z"/>
</g>
<path style="fill:#1185E0;" d="M479.608,254.955l-11.494-12.539v-97.176c0-4.702-2.09-8.882-5.747-12.016L413.78,91.951
	c-2.612-2.612-6.269-3.657-9.927-3.657H79.935c-3.657,0-7.314,1.567-9.927,3.657L21.42,133.224
	c-3.657,3.135-5.747,7.314-5.747,12.016v97.176L4.18,254.955C1.567,258.09,0,261.747,0,265.404v130.09h31.347v-35.527h421.094
	v35.527h31.347v-130.09C483.788,261.224,482.22,257.567,479.608,254.955z M85.682,119.641h312.424l38.661,32.914v57.469
	c-2.09-1.045-4.18-1.567-6.792-1.567H53.812c-2.612,0-4.702,0.522-6.792,1.567v-57.469L85.682,119.641z M452.441,328.62H31.347
	v-56.947l29.257-31.869h362.58l29.257,31.869L452.441,328.62L452.441,328.62z"/>
<g>
</g>
<g>
</g>
<g>
</g>
<g>
</g>
<g>
</g>
<g>
</g>
<g>
</g>
<g>
</g>
<g>
</g>
<g>
</g>
<g>
</g>
<g>
</g>
<g>
</g>
<g>
</g>
<g>
</g>
</svg>
