<svg id="Layer_1" enable-background="new 0 0 511.336 511.336" height="512" viewBox="0 0 511.336 511.336" width="512" xmlns="http://www.w3.org/2000/svg"><path d="m457.707 270.007c28.476-41.939-1.617-99.339-52.707-99.339-51.076 0-81.177 57.38-52.72 99.322-9.772 5.589-18.274 12.461-25.6 20.439-17.937-17.821-39.373-32.119-63.17-41.776 21.186-19.451 34.49-47.359 34.49-78.318 0-58.632-47.701-106.333-106.333-106.333s-106.334 47.7-106.334 106.333c0 30.96 13.303 58.868 34.489 78.318-70.19 28.484-119.822 97.391-119.822 177.682 0 11.598 9.402 21 21 21s21-9.402 21-21c0-82.526 67.14-149.667 149.667-149.667s149.667 67.14 149.667 149.667c0 11.598 9.402 21 21 21s21-9.402 21-21c0-37.708-10.952-72.904-29.834-102.585 20.848-27.98 52.821-25.748 51.567-25.749 35.445.038 64.271 28.884 64.271 64.338v63.997c0 11.598 9.402 21 21 21s21-9.402 21-21v-63.997c-.002-39.47-21.617-73.984-53.631-92.332zm-330.374-99.672c0-35.473 28.86-64.333 64.333-64.333s64.334 28.86 64.334 64.333c0 35.474-28.86 64.333-64.333 64.333s-64.334-28.86-64.334-64.333zm256 64c0-11.947 9.72-21.667 21.667-21.667s21.667 9.72 21.667 21.667c0 11.896-9.666 21.664-21.67 21.664-11.885-.001-21.664-9.658-21.664-21.664z"/></svg>